<svg xmlns="http://www.w3.org/2000/svg" width="70" height="70" viewBox="0 0 30 30" style="width: 100%; height: 100%;"><desc>Made with illustrio</desc>
  
<g class="base"><g fill="none" fill-rule="evenodd" stroke="none" class="main-fill">
    
    <path fill="none" d="M15,0 C6.7,0 0,6.7 0,15 C0,23.3 6.7,30 15,30 C23.3,30 30,23.3 30,15 C30,6.7 23.3,0 15,0 L15,0 Z M15.2,3.5 C16.9,3.5 18.3,4.9 18.3,6.7 C18.3,8.4 16.9,9.8 15.2,9.8 C13.5,9.8 12.1,8.4 12.1,6.7 C12,4.9 13.4,3.5 15.2,3.5 L15.2,3.5 Z M19.8,26.1 C19.8,26.5 19.5,26.8 19.1,26.8 L18.4,26.8 L11.9,26.8 L11.2,26.8 L11.2,26.1 L11.2,22.5 L11.2,21.8 C11.2,21.4 11.5,21.1 11.9,21.1 L12.6,21.1 L12.6,16.7 L11.9,16.7 L11.2,16.7 L11.2,16 L11.2,12.4 L11.2,11.7 C11.2,11.3 11.5,11 11.9,11 L17.7,11 C18.1,11 18.4,11.3 18.4,11.7 L18.4,21 L19,21 C19.4,21 19.7,21.3 19.7,21.7 L19.7,26.1 L19.8,26.1 Z" stroke="none" class="main-fill"></path>
  </g></g><style>
          .main-fill {fill: #f65c2e;}
        </style></svg>